<svg width="384" height="67" viewBox="0 0 384 67" fill="none" xmlns="http://www.w3.org/2000/svg">
<g clip-path="url(#clip0_202_2)">
<rect width="384" height="67" fill="white"/>
<path d="M13.8577 40.107L13.5357 42.522H9.39572V56H6.33672V42.522H2.05871V40.107H13.8577ZM24.4742 49.629C24.4742 49.7823 24.4512 50.181 24.4052 50.825H16.7692C16.8612 52.0057 17.1679 52.849 17.6892 53.355C18.2105 53.861 18.9005 54.114 19.7592 54.114C20.2959 54.114 20.8019 54.0297 21.2772 53.861C21.7525 53.677 22.2585 53.401 22.7952 53.033L24.0142 54.712C22.6649 55.8007 21.1622 56.345 19.5062 56.345C17.6509 56.345 16.2172 55.7777 15.2052 54.643C14.2085 53.5083 13.7102 51.9597 13.7102 49.997C13.7102 48.755 13.9249 47.6433 14.3542 46.662C14.7835 45.6653 15.4045 44.891 16.2172 44.339C17.0299 43.7717 17.9959 43.488 19.1152 43.488C20.8172 43.488 22.1359 44.0323 23.0712 45.121C24.0065 46.1943 24.4742 47.697 24.4742 49.629ZM21.5532 48.778C21.5532 46.6467 20.7635 45.581 19.1842 45.581C18.4635 45.581 17.8962 45.8493 17.4822 46.386C17.0835 46.9073 16.8459 47.7507 16.7692 48.916H21.5532V48.778ZM32.0142 43.488C32.8116 43.488 33.5246 43.603 34.1532 43.833C34.7972 44.063 35.4029 44.4233 35.9702 44.914L34.6592 46.685C34.2452 46.3783 33.8466 46.156 33.4632 46.018C33.0799 45.88 32.6582 45.811 32.1982 45.811C30.3736 45.811 29.4612 47.1987 29.4612 49.974C29.4612 51.3847 29.6989 52.4043 30.1742 53.033C30.6496 53.6463 31.3242 53.953 32.1982 53.953C32.6276 53.953 33.0186 53.884 33.3712 53.746C33.7392 53.608 34.1686 53.3857 34.6592 53.079L35.9702 54.942C34.8202 55.8773 33.5092 56.345 32.0372 56.345C30.8719 56.345 29.8599 56.092 29.0012 55.586C28.1426 55.0647 27.4832 54.3287 27.0232 53.378C26.5632 52.4273 26.3332 51.308 26.3332 50.02C26.3332 48.732 26.5632 47.5973 27.0232 46.616C27.4832 45.6193 28.1426 44.8527 29.0012 44.316C29.8599 43.764 30.8642 43.488 32.0142 43.488ZM44.5846 43.488C45.658 43.488 46.5013 43.8177 47.1146 44.477C47.728 45.1363 48.0346 46.041 48.0346 47.191V56H45.0906V47.651C45.0906 46.9303 44.9603 46.4243 44.6996 46.133C44.4543 45.8417 44.0863 45.696 43.5956 45.696C43.105 45.696 42.6526 45.857 42.2386 46.179C41.8246 46.4857 41.426 46.9303 41.0426 47.513V56H38.0986V38.98L41.0426 38.681V45.282C42.024 44.086 43.2046 43.488 44.5846 43.488ZM61.7669 50.204V52.458H59.9039V56H57.0289V52.458H50.4509V50.434L54.9589 40.222L57.4659 41.165L53.5099 50.204H57.0519L57.3509 46.317H59.9039V50.204H61.7669ZM70.6174 39.762C71.6601 39.762 72.5801 39.923 73.3774 40.245C74.1901 40.5517 74.9567 41.0117 75.6774 41.625L74.0444 43.327C73.4771 42.8823 72.9404 42.5603 72.4344 42.361C71.9437 42.1617 71.3687 42.062 70.7094 42.062C69.4827 42.062 68.4784 42.5527 67.6964 43.534C66.9144 44.5153 66.5234 46.018 66.5234 48.042C66.5234 50.158 66.8301 51.6837 67.4434 52.619C68.0721 53.5543 69.0227 54.022 70.2954 54.022C71.2614 54.022 72.1047 53.815 72.8254 53.401V49.261H70.4334L70.1114 47.007H75.8154V54.781C74.0981 55.8237 72.2734 56.345 70.3414 56.345C68.0721 56.345 66.3317 55.6397 65.1204 54.229C63.9244 52.8183 63.3264 50.756 63.3264 48.042C63.3264 46.3093 63.6484 44.822 64.2924 43.58C64.9517 42.3227 65.8334 41.372 66.9374 40.728C68.0414 40.084 69.2681 39.762 70.6174 39.762ZM83.7434 43.488C85.5374 43.488 86.9327 44.063 87.9294 45.213C88.9414 46.3477 89.4474 47.9117 89.4474 49.905C89.4474 51.1777 89.2174 52.3047 88.7574 53.286C88.2974 54.252 87.6381 55.0033 86.7794 55.54C85.9207 56.0767 84.9011 56.345 83.7204 56.345C81.9264 56.345 80.5234 55.7777 79.5114 54.643C78.4994 53.493 77.9934 51.9137 77.9934 49.905C77.9934 48.6323 78.2234 47.513 78.6834 46.547C79.1434 45.581 79.8027 44.8297 80.6614 44.293C81.5354 43.7563 82.5627 43.488 83.7434 43.488ZM83.7434 45.719C81.9801 45.719 81.0984 47.1143 81.0984 49.905C81.0984 51.3463 81.3131 52.412 81.7424 53.102C82.1871 53.7767 82.8464 54.114 83.7204 54.114C84.5944 54.114 85.2461 53.769 85.6754 53.079C86.1201 52.389 86.3424 51.331 86.3424 49.905C86.3424 48.479 86.1201 47.4287 85.6754 46.754C85.2461 46.064 84.6021 45.719 83.7434 45.719ZM97.175 43.488C98.969 43.488 100.364 44.063 101.361 45.213C102.373 46.3477 102.879 47.9117 102.879 49.905C102.879 51.1777 102.649 52.3047 102.189 53.286C101.729 54.252 101.07 55.0033 100.211 55.54C99.3524 56.0767 98.3327 56.345 97.152 56.345C95.358 56.345 93.955 55.7777 92.943 54.643C91.931 53.493 91.425 51.9137 91.425 49.905C91.425 48.6323 91.655 47.513 92.115 46.547C92.575 45.581 93.2344 44.8297 94.093 44.293C94.967 43.7563 95.9944 43.488 97.175 43.488ZM97.175 45.719C95.4117 45.719 94.53 47.1143 94.53 49.905C94.53 51.3463 94.7447 52.412 95.174 53.102C95.6187 53.7767 96.278 54.114 97.152 54.114C98.026 54.114 98.6777 53.769 99.107 53.079C99.5517 52.389 99.774 51.331 99.774 49.905C99.774 48.479 99.5517 47.4287 99.107 46.754C98.6777 46.064 98.0337 45.719 97.175 45.719ZM115.874 38.957V56H113.275L113.068 54.459C112.684 55.0417 112.194 55.5017 111.596 55.839C111.013 56.1763 110.346 56.345 109.595 56.345C108.107 56.345 106.965 55.77 106.168 54.62C105.37 53.47 104.972 51.906 104.972 49.928C104.972 48.686 105.171 47.582 105.57 46.616C105.968 45.6347 106.536 44.868 107.272 44.316C108.023 43.764 108.889 43.488 109.871 43.488C111.036 43.488 112.056 43.925 112.93 44.799V38.635L115.874 38.957ZM110.423 54.114C110.944 54.114 111.404 53.9913 111.803 53.746C112.201 53.4853 112.577 53.0867 112.93 52.55V46.984C112.577 46.5547 112.217 46.2327 111.849 46.018C111.496 45.8033 111.082 45.696 110.607 45.696C109.825 45.696 109.204 46.0487 108.744 46.754C108.299 47.444 108.077 48.4943 108.077 49.905C108.077 51.4077 108.276 52.4887 108.675 53.148C109.073 53.792 109.656 54.114 110.423 54.114ZM135.461 40.107L135.139 42.522H130.999V56H127.94V42.522H123.662V40.107H135.461ZM141.064 43.488C142.858 43.488 144.253 44.063 145.25 45.213C146.262 46.3477 146.768 47.9117 146.768 49.905C146.768 51.1777 146.538 52.3047 146.078 53.286C145.618 54.252 144.958 55.0033 144.1 55.54C143.241 56.0767 142.221 56.345 141.041 56.345C139.247 56.345 137.844 55.7777 136.832 54.643C135.82 53.493 135.314 51.9137 135.314 49.905C135.314 48.6323 135.544 47.513 136.004 46.547C136.464 45.581 137.123 44.8297 137.982 44.293C138.856 43.7563 139.883 43.488 141.064 43.488ZM141.064 45.719C139.3 45.719 138.419 47.1143 138.419 49.905C138.419 51.3463 138.633 52.412 139.063 53.102C139.507 53.7767 140.167 54.114 141.041 54.114C141.915 54.114 142.566 53.769 142.996 53.079C143.44 52.389 143.663 51.331 143.663 49.905C143.663 48.479 143.44 47.4287 142.996 46.754C142.566 46.064 141.922 45.719 141.064 45.719ZM154.495 43.488C156.289 43.488 157.685 44.063 158.681 45.213C159.693 46.3477 160.199 47.9117 160.199 49.905C160.199 51.1777 159.969 52.3047 159.509 53.286C159.049 54.252 158.39 55.0033 157.531 55.54C156.673 56.0767 155.653 56.345 154.472 56.345C152.678 56.345 151.275 55.7777 150.263 54.643C149.251 53.493 148.745 51.9137 148.745 49.905C148.745 48.6323 148.975 47.513 149.435 46.547C149.895 45.581 150.555 44.8297 151.413 44.293C152.287 43.7563 153.315 43.488 154.495 43.488ZM154.495 45.719C152.732 45.719 151.85 47.1143 151.85 49.905C151.85 51.3463 152.065 52.412 152.494 53.102C152.939 53.7767 153.598 54.114 154.472 54.114C155.346 54.114 155.998 53.769 156.427 53.079C156.872 52.389 157.094 51.331 157.094 49.905C157.094 48.479 156.872 47.4287 156.427 46.754C155.998 46.064 155.354 45.719 154.495 45.719ZM165.834 56.345C164.899 56.345 164.163 56.0767 163.626 55.54C163.105 54.988 162.844 54.2137 162.844 53.217V38.957L165.788 38.635V53.125C165.788 53.6923 166.018 53.976 166.478 53.976C166.708 53.976 166.938 53.9377 167.168 53.861L167.789 55.931C167.176 56.207 166.524 56.345 165.834 56.345ZM172.686 38.635V56H169.742V38.957L172.686 38.635ZM179.977 43.833L175.929 49.192L180.368 56H176.987L172.801 49.353L176.872 43.833H179.977ZM184.972 43.833V56H182.028V43.833H184.972ZM183.477 37.669C184.029 37.669 184.474 37.8453 184.811 38.198C185.164 38.5353 185.34 38.957 185.34 39.463C185.34 39.969 185.164 40.3907 184.811 40.728C184.474 41.0653 184.029 41.234 183.477 41.234C182.941 41.234 182.496 41.0653 182.143 40.728C181.806 40.3907 181.637 39.969 181.637 39.463C181.637 38.957 181.806 38.5353 182.143 38.198C182.496 37.8453 182.941 37.669 183.477 37.669ZM195.489 55.425C195.059 55.7317 194.576 55.9617 194.04 56.115C193.518 56.2683 192.982 56.345 192.43 56.345C191.234 56.3297 190.321 55.9923 189.693 55.333C189.079 54.6583 188.773 53.6693 188.773 52.366V45.949H186.864V43.833H188.773V41.142L191.717 40.797V43.833H194.546L194.247 45.949H191.717V52.297C191.717 52.895 191.816 53.3243 192.016 53.585C192.23 53.8457 192.56 53.976 193.005 53.976C193.449 53.976 193.932 53.8303 194.454 53.539L195.489 55.425ZM202.32 49.974V47.628H209.266V49.974H202.32ZM222.75 40.107C224.789 40.107 226.368 40.5287 227.488 41.372C228.622 42.2153 229.19 43.4803 229.19 45.167C229.19 46.9303 228.622 48.2567 227.488 49.146C226.353 50.02 224.843 50.457 222.957 50.457H221.094V56H218.058V40.107H222.75ZM222.727 48.18C223.815 48.18 224.636 47.9577 225.188 47.513C225.74 47.053 226.016 46.271 226.016 45.167C226.016 43.281 224.919 42.338 222.727 42.338H221.094V48.18H222.727ZM237.108 43.511C237.553 43.511 237.959 43.5647 238.327 43.672L237.821 46.524C237.453 46.432 237.093 46.386 236.74 46.386C236.02 46.386 235.452 46.6467 235.038 47.168C234.624 47.674 234.295 48.456 234.049 49.514V56H231.105V43.833H233.658L233.934 46.225C234.226 45.351 234.647 44.684 235.199 44.224C235.751 43.7487 236.388 43.511 237.108 43.511ZM244.429 43.488C246.223 43.488 247.618 44.063 248.615 45.213C249.627 46.3477 250.133 47.9117 250.133 49.905C250.133 51.1777 249.903 52.3047 249.443 53.286C248.983 54.252 248.324 55.0033 247.465 55.54C246.606 56.0767 245.587 56.345 244.406 56.345C242.612 56.345 241.209 55.7777 240.197 54.643C239.185 53.493 238.679 51.9137 238.679 49.905C238.679 48.6323 238.909 47.513 239.369 46.547C239.829 45.581 240.488 44.8297 241.347 44.293C242.221 43.7563 243.248 43.488 244.429 43.488ZM244.429 45.719C242.666 45.719 241.784 47.1143 241.784 49.905C241.784 51.3463 241.999 52.412 242.428 53.102C242.873 53.7767 243.532 54.114 244.406 54.114C245.28 54.114 245.932 53.769 246.361 53.079C246.806 52.389 247.028 51.331 247.028 49.905C247.028 48.479 246.806 47.4287 246.361 46.754C245.932 46.064 245.288 45.719 244.429 45.719ZM255.814 54.919C255.814 56.115 255.637 57.0887 255.285 57.84C254.947 58.6067 254.464 59.22 253.836 59.68C253.207 60.14 252.387 60.577 251.375 60.991L250.432 58.852C251.03 58.576 251.497 58.3 251.835 58.024C252.172 57.7633 252.425 57.403 252.594 56.943C252.778 56.483 252.87 55.8697 252.87 55.103V43.833H255.814V54.919ZM254.319 37.669C254.871 37.669 255.315 37.8453 255.653 38.198C256.005 38.5353 256.182 38.957 256.182 39.463C256.182 39.969 256.005 40.3907 255.653 40.728C255.315 41.0653 254.871 41.234 254.319 41.234C253.782 41.234 253.337 41.0653 252.985 40.728C252.647 40.3907 252.479 39.969 252.479 39.463C252.479 38.957 252.647 38.5353 252.985 38.198C253.337 37.8453 253.782 37.669 254.319 37.669ZM269.343 49.629C269.343 49.7823 269.32 50.181 269.274 50.825H261.638C261.73 52.0057 262.037 52.849 262.558 53.355C263.08 53.861 263.77 54.114 264.628 54.114C265.165 54.114 265.671 54.0297 266.146 53.861C266.622 53.677 267.128 53.401 267.664 53.033L268.883 54.712C267.534 55.8007 266.031 56.345 264.375 56.345C262.52 56.345 261.086 55.7777 260.074 54.643C259.078 53.5083 258.579 51.9597 258.579 49.997C258.579 48.755 258.794 47.6433 259.223 46.662C259.653 45.6653 260.274 44.891 261.086 44.339C261.899 43.7717 262.865 43.488 263.984 43.488C265.686 43.488 267.005 44.0323 267.94 45.121C268.876 46.1943 269.343 47.697 269.343 49.629ZM266.422 48.778C266.422 46.6467 265.633 45.581 264.053 45.581C263.333 45.581 262.765 45.8493 262.351 46.386C261.953 46.9073 261.715 47.7507 261.638 48.916H266.422V48.778ZM276.883 43.488C277.681 43.488 278.394 43.603 279.022 43.833C279.666 44.063 280.272 44.4233 280.839 44.914L279.528 46.685C279.114 46.3783 278.716 46.156 278.332 46.018C277.949 45.88 277.527 45.811 277.067 45.811C275.243 45.811 274.33 47.1987 274.33 49.974C274.33 51.3847 274.568 52.4043 275.043 53.033C275.519 53.6463 276.193 53.953 277.067 53.953C277.497 53.953 277.888 53.884 278.24 53.746C278.608 53.608 279.038 53.3857 279.528 53.079L280.839 54.942C279.689 55.8773 278.378 56.345 276.906 56.345C275.741 56.345 274.729 56.092 273.87 55.586C273.012 55.0647 272.352 54.3287 271.892 53.378C271.432 52.4273 271.202 51.308 271.202 50.02C271.202 48.732 271.432 47.5973 271.892 46.616C272.352 45.6193 273.012 44.8527 273.87 44.316C274.729 43.764 275.733 43.488 276.883 43.488ZM289.937 55.425C289.507 55.7317 289.024 55.9617 288.488 56.115C287.966 56.2683 287.43 56.345 286.878 56.345C285.682 56.3297 284.769 55.9923 284.141 55.333C283.527 54.6583 283.221 53.6693 283.221 52.366V45.949H281.312V43.833H283.221V41.142L286.165 40.797V43.833H288.994L288.695 45.949H286.165V52.297C286.165 52.895 286.264 53.3243 286.464 53.585C286.678 53.8457 287.008 53.976 287.453 53.976C287.897 53.976 288.38 53.8303 288.902 53.539L289.937 55.425ZM303.852 39.762C304.894 39.762 305.814 39.923 306.612 40.245C307.424 40.5517 308.191 41.0117 308.912 41.625L307.279 43.327C306.711 42.8823 306.175 42.5603 305.669 42.361C305.178 42.1617 304.603 42.062 303.944 42.062C302.717 42.062 301.713 42.5527 300.931 43.534C300.149 44.5153 299.758 46.018 299.758 48.042C299.758 50.158 300.064 51.6837 300.678 52.619C301.306 53.5543 302.257 54.022 303.53 54.022C304.496 54.022 305.339 53.815 306.06 53.401V49.261H303.668L303.346 47.007H309.05V54.781C307.332 55.8237 305.508 56.345 303.576 56.345C301.306 56.345 299.566 55.6397 298.355 54.229C297.159 52.8183 296.561 50.756 296.561 48.042C296.561 46.3093 296.883 44.822 297.527 43.58C298.186 42.3227 299.068 41.372 300.172 40.728C301.276 40.084 302.502 39.762 303.852 39.762ZM321.992 49.629C321.992 49.7823 321.969 50.181 321.923 50.825H314.287C314.379 52.0057 314.685 52.849 315.207 53.355C315.728 53.861 316.418 54.114 317.277 54.114C317.813 54.114 318.319 54.0297 318.795 53.861C319.27 53.677 319.776 53.401 320.313 53.033L321.532 54.712C320.182 55.8007 318.68 56.345 317.024 56.345C315.168 56.345 313.735 55.7777 312.723 54.643C311.726 53.5083 311.228 51.9597 311.228 49.997C311.228 48.755 311.442 47.6433 311.872 46.662C312.301 45.6653 312.922 44.891 313.735 44.339C314.547 43.7717 315.513 43.488 316.633 43.488C318.335 43.488 319.653 44.0323 320.589 45.121C321.524 46.1943 321.992 47.697 321.992 49.629ZM319.071 48.778C319.071 46.6467 318.281 45.581 316.702 45.581C315.981 45.581 315.414 45.8493 315 46.386C314.601 46.9073 314.363 47.7507 314.287 48.916H319.071V48.778ZM331.119 43.488C332.207 43.488 333.051 43.8177 333.649 44.477C334.262 45.121 334.569 46.0257 334.569 47.191V56H331.625V47.651C331.625 46.9303 331.494 46.4243 331.234 46.133C330.988 45.8417 330.62 45.696 330.13 45.696C329.624 45.696 329.164 45.857 328.75 46.179C328.351 46.4857 327.96 46.938 327.577 47.536V56H324.633V43.833H327.186L327.416 45.42C328.412 44.132 329.647 43.488 331.119 43.488ZM347.979 49.629C347.979 49.7823 347.956 50.181 347.91 50.825H340.274C340.366 52.0057 340.673 52.849 341.194 53.355C341.715 53.861 342.405 54.114 343.264 54.114C343.801 54.114 344.307 54.0297 344.782 53.861C345.257 53.677 345.763 53.401 346.3 53.033L347.519 54.712C346.17 55.8007 344.667 56.345 343.011 56.345C341.156 56.345 339.722 55.7777 338.71 54.643C337.713 53.5083 337.215 51.9597 337.215 49.997C337.215 48.755 337.43 47.6433 337.859 46.662C338.288 45.6653 338.909 44.891 339.722 44.339C340.535 43.7717 341.501 43.488 342.62 43.488C344.322 43.488 345.641 44.0323 346.576 45.121C347.511 46.1943 347.979 47.697 347.979 49.629ZM345.058 48.778C345.058 46.6467 344.268 45.581 342.689 45.581C341.968 45.581 341.401 45.8493 340.987 46.386C340.588 46.9073 340.351 47.7507 340.274 48.916H345.058V48.778ZM354.461 43.488C356.102 43.488 357.543 43.971 358.785 44.937L357.635 46.662C356.592 46.0027 355.573 45.673 354.576 45.673C353.993 45.673 353.541 45.788 353.219 46.018C352.897 46.2327 352.736 46.524 352.736 46.892C352.736 47.168 352.805 47.398 352.943 47.582C353.081 47.766 353.326 47.9423 353.679 48.111C354.047 48.2643 354.584 48.4407 355.289 48.64C356.608 48.9927 357.581 49.4603 358.21 50.043C358.854 50.6257 359.176 51.4383 359.176 52.481C359.176 53.6923 358.685 54.643 357.704 55.333C356.723 56.0077 355.504 56.345 354.047 56.345C353.05 56.345 352.138 56.1917 351.31 55.885C350.497 55.5783 349.792 55.1567 349.194 54.62L350.666 52.964C351.724 53.7613 352.828 54.16 353.978 54.16C354.637 54.16 355.159 54.0297 355.542 53.769C355.941 53.5083 356.14 53.148 356.14 52.688C356.14 52.3353 356.063 52.0593 355.91 51.86C355.772 51.6453 355.511 51.4613 355.128 51.308C354.76 51.1393 354.177 50.94 353.38 50.71C352.138 50.3727 351.226 49.905 350.643 49.307C350.06 48.6937 349.769 47.9347 349.769 47.03C349.769 46.3553 349.961 45.7497 350.344 45.213C350.743 44.6763 351.295 44.2547 352 43.948C352.721 43.6413 353.541 43.488 354.461 43.488ZM364.503 43.833V56H361.559V43.833H364.503ZM363.008 37.669C363.56 37.669 364.004 37.8453 364.342 38.198C364.694 38.5353 364.871 38.957 364.871 39.463C364.871 39.969 364.694 40.3907 364.342 40.728C364.004 41.0653 363.56 41.234 363.008 41.234C362.471 41.234 362.026 41.0653 361.674 40.728C361.336 40.3907 361.168 39.969 361.168 39.463C361.168 38.957 361.336 38.5353 361.674 38.198C362.026 37.8453 362.471 37.669 363.008 37.669ZM371.891 43.488C373.531 43.488 374.973 43.971 376.215 44.937L375.065 46.662C374.022 46.0027 373.002 45.673 372.006 45.673C371.423 45.673 370.971 45.788 370.649 46.018C370.327 46.2327 370.166 46.524 370.166 46.892C370.166 47.168 370.235 47.398 370.373 47.582C370.511 47.766 370.756 47.9423 371.109 48.111C371.477 48.2643 372.013 48.4407 372.719 48.64C374.037 48.9927 375.011 49.4603 375.64 50.043C376.284 50.6257 376.606 51.4383 376.606 52.481C376.606 53.6923 376.115 54.643 375.134 55.333C374.152 56.0077 372.933 56.345 371.477 56.345C370.48 56.345 369.568 56.1917 368.74 55.885C367.927 55.5783 367.222 55.1567 366.624 54.62L368.096 52.964C369.154 53.7613 370.258 54.16 371.408 54.16C372.067 54.16 372.588 54.0297 372.972 53.769C373.37 53.5083 373.57 53.148 373.57 52.688C373.57 52.3353 373.493 52.0593 373.34 51.86C373.202 51.6453 372.941 51.4613 372.558 51.308C372.19 51.1393 371.607 50.94 370.81 50.71C369.568 50.3727 368.655 49.905 368.073 49.307C367.49 48.6937 367.199 47.9347 367.199 47.03C367.199 46.3553 367.39 45.7497 367.774 45.213C368.172 44.6763 368.724 44.2547 369.43 43.948C370.15 43.6413 370.971 43.488 371.891 43.488Z" fill="black"/>
</g>
<defs>
<clipPath id="clip0_202_2">
<rect width="384" height="67" fill="white"/>
</clipPath>
</defs>
</svg>
