<svg width="211" height="67" viewBox="0 0 211 67" fill="none" xmlns="http://www.w3.org/2000/svg">
<g clip-path="url(#clip0_201_2)">
<rect width="211" height="67" fill="white"/>
<path d="M12.0961 39.416L11.7601 41.936H7.44009V56H4.24809V41.936H-0.215906V39.416H12.0961ZM23.1742 49.352C23.1742 49.512 23.1502 49.928 23.1022 50.6H15.1342C15.2302 51.832 15.5502 52.712 16.0942 53.24C16.6382 53.768 17.3582 54.032 18.2542 54.032C18.8142 54.032 19.3422 53.944 19.8382 53.768C20.3342 53.576 20.8622 53.288 21.4222 52.904L22.6942 54.656C21.2862 55.792 19.7182 56.36 17.9902 56.36C16.0542 56.36 14.5582 55.768 13.5022 54.584C12.4622 53.4 11.9422 51.784 11.9422 49.736C11.9422 48.44 12.1662 47.28 12.6142 46.256C13.0622 45.216 13.7102 44.408 14.5582 43.832C15.4062 43.24 16.4142 42.944 17.5822 42.944C19.3582 42.944 20.7342 43.512 21.7102 44.648C22.6862 45.768 23.1742 47.336 23.1742 49.352ZM20.1262 48.464C20.1262 46.24 19.3022 45.128 17.6542 45.128C16.9022 45.128 16.3102 45.408 15.8782 45.968C15.4622 46.512 15.2142 47.392 15.1342 48.608H20.1262V48.464ZM31.042 42.944C31.874 42.944 32.618 43.064 33.274 43.304C33.946 43.544 34.578 43.92 35.17 44.432L33.802 46.28C33.37 45.96 32.954 45.728 32.554 45.584C32.154 45.44 31.714 45.368 31.234 45.368C29.33 45.368 28.378 46.816 28.378 49.712C28.378 51.184 28.626 52.248 29.122 52.904C29.618 53.544 30.322 53.864 31.234 53.864C31.682 53.864 32.09 53.792 32.458 53.648C32.842 53.504 33.29 53.272 33.802 52.952L35.17 54.896C33.97 55.872 32.602 56.36 31.066 56.36C29.85 56.36 28.794 56.096 27.898 55.568C27.002 55.024 26.314 54.256 25.834 53.264C25.354 52.272 25.114 51.104 25.114 49.76C25.114 48.416 25.354 47.232 25.834 46.208C26.314 45.168 27.002 44.368 27.898 43.808C28.794 43.232 29.842 42.944 31.042 42.944ZM44.159 42.944C45.279 42.944 46.159 43.288 46.799 43.976C47.439 44.664 47.759 45.608 47.759 46.808V56H44.687V47.288C44.687 46.536 44.551 46.008 44.279 45.704C44.023 45.4 43.639 45.248 43.127 45.248C42.615 45.248 42.143 45.416 41.711 45.752C41.279 46.072 40.863 46.536 40.463 47.144V56H37.391V38.24L40.463 37.928V44.816C41.487 43.568 42.719 42.944 44.159 42.944ZM62.0883 49.952V52.304H60.1443V56H57.1443V52.304H50.2803V50.192L54.9843 39.536L57.6003 40.52L53.4723 49.952H57.1683L57.4803 45.896H60.1443V49.952H62.0883ZM71.3236 39.056C72.4116 39.056 73.3716 39.224 74.2036 39.56C75.0516 39.88 75.8516 40.36 76.6036 41L74.8996 42.776C74.3076 42.312 73.7476 41.976 73.2196 41.768C72.7076 41.56 72.1076 41.456 71.4196 41.456C70.1396 41.456 69.0916 41.968 68.2756 42.992C67.4596 44.016 67.0516 45.584 67.0516 47.696C67.0516 49.904 67.3716 51.496 68.0116 52.472C68.6676 53.448 69.6596 53.936 70.9876 53.936C71.9956 53.936 72.8756 53.72 73.6276 53.288V48.968H71.1316L70.7956 46.616H76.7476V54.728C74.9556 55.816 73.0516 56.36 71.0356 56.36C68.6676 56.36 66.8516 55.624 65.5876 54.152C64.3396 52.68 63.7156 50.528 63.7156 47.696C63.7156 45.888 64.0516 44.336 64.7236 43.04C65.4116 41.728 66.3316 40.736 67.4836 40.064C68.6356 39.392 69.9156 39.056 71.3236 39.056ZM85.0203 42.944C86.8923 42.944 88.3483 43.544 89.3883 44.744C90.4443 45.928 90.9723 47.56 90.9723 49.64C90.9723 50.968 90.7323 52.144 90.2523 53.168C89.7723 54.176 89.0843 54.96 88.1883 55.52C87.2923 56.08 86.2283 56.36 84.9963 56.36C83.1243 56.36 81.6603 55.768 80.6043 54.584C79.5483 53.384 79.0203 51.736 79.0203 49.64C79.0203 48.312 79.2603 47.144 79.7403 46.136C80.2203 45.128 80.9083 44.344 81.8043 43.784C82.7163 43.224 83.7883 42.944 85.0203 42.944ZM85.0203 45.272C83.1803 45.272 82.2603 46.728 82.2603 49.64C82.2603 51.144 82.4843 52.256 82.9323 52.976C83.3963 53.68 84.0843 54.032 84.9963 54.032C85.9083 54.032 86.5883 53.672 87.0363 52.952C87.5003 52.232 87.7323 51.128 87.7323 49.64C87.7323 48.152 87.5003 47.056 87.0363 46.352C86.5883 45.632 85.9163 45.272 85.0203 45.272ZM99.0359 42.944C100.908 42.944 102.364 43.544 103.404 44.744C104.46 45.928 104.988 47.56 104.988 49.64C104.988 50.968 104.748 52.144 104.268 53.168C103.788 54.176 103.1 54.96 102.204 55.52C101.308 56.08 100.244 56.36 99.0119 56.36C97.1399 56.36 95.6759 55.768 94.6199 54.584C93.5639 53.384 93.0359 51.736 93.0359 49.64C93.0359 48.312 93.2759 47.144 93.7559 46.136C94.2359 45.128 94.9239 44.344 95.8199 43.784C96.7319 43.224 97.8039 42.944 99.0359 42.944ZM99.0359 45.272C97.1959 45.272 96.2759 46.728 96.2759 49.64C96.2759 51.144 96.4999 52.256 96.9479 52.976C97.4119 53.68 98.0999 54.032 99.0119 54.032C99.9239 54.032 100.604 53.672 101.052 52.952C101.516 52.232 101.748 51.128 101.748 49.64C101.748 48.152 101.516 47.056 101.052 46.352C100.604 45.632 99.9319 45.272 99.0359 45.272ZM118.548 38.216V56H115.836L115.62 54.392C115.22 55 114.708 55.48 114.084 55.832C113.476 56.184 112.78 56.36 111.996 56.36C110.444 56.36 109.252 55.76 108.42 54.56C107.588 53.36 107.172 51.728 107.172 49.664C107.172 48.368 107.38 47.216 107.796 46.208C108.212 45.184 108.804 44.384 109.572 43.808C110.356 43.232 111.26 42.944 112.284 42.944C113.5 42.944 114.564 43.4 115.476 44.312V37.88L118.548 38.216ZM112.86 54.032C113.404 54.032 113.884 53.904 114.3 53.648C114.716 53.376 115.108 52.96 115.476 52.4V46.592C115.108 46.144 114.732 45.808 114.348 45.584C113.98 45.36 113.548 45.248 113.052 45.248C112.236 45.248 111.588 45.616 111.108 46.352C110.644 47.072 110.412 48.168 110.412 49.64C110.412 51.208 110.62 52.336 111.036 53.024C111.452 53.696 112.06 54.032 112.86 54.032ZM138.987 39.416L138.651 41.936H134.331V56H131.139V41.936H126.675V39.416H138.987ZM144.833 42.944C146.705 42.944 148.161 43.544 149.201 44.744C150.257 45.928 150.785 47.56 150.785 49.64C150.785 50.968 150.545 52.144 150.065 53.168C149.585 54.176 148.897 54.96 148.001 55.52C147.105 56.08 146.041 56.36 144.809 56.36C142.937 56.36 141.473 55.768 140.417 54.584C139.361 53.384 138.833 51.736 138.833 49.64C138.833 48.312 139.073 47.144 139.553 46.136C140.033 45.128 140.721 44.344 141.617 43.784C142.529 43.224 143.601 42.944 144.833 42.944ZM144.833 45.272C142.993 45.272 142.073 46.728 142.073 49.64C142.073 51.144 142.297 52.256 142.745 52.976C143.209 53.68 143.897 54.032 144.809 54.032C145.721 54.032 146.401 53.672 146.849 52.952C147.313 52.232 147.545 51.128 147.545 49.64C147.545 48.152 147.313 47.056 146.849 46.352C146.401 45.632 145.729 45.272 144.833 45.272ZM158.848 42.944C160.72 42.944 162.176 43.544 163.216 44.744C164.272 45.928 164.8 47.56 164.8 49.64C164.8 50.968 164.56 52.144 164.08 53.168C163.6 54.176 162.912 54.96 162.016 55.52C161.12 56.08 160.056 56.36 158.824 56.36C156.952 56.36 155.488 55.768 154.432 54.584C153.376 53.384 152.848 51.736 152.848 49.64C152.848 48.312 153.088 47.144 153.568 46.136C154.048 45.128 154.736 44.344 155.632 43.784C156.544 43.224 157.616 42.944 158.848 42.944ZM158.848 45.272C157.008 45.272 156.088 46.728 156.088 49.64C156.088 51.144 156.312 52.256 156.76 52.976C157.224 53.68 157.912 54.032 158.824 54.032C159.736 54.032 160.416 53.672 160.864 52.952C161.328 52.232 161.56 51.128 161.56 49.64C161.56 48.152 161.328 47.056 160.864 46.352C160.416 45.632 159.744 45.272 158.848 45.272ZM170.68 56.36C169.704 56.36 168.936 56.08 168.376 55.52C167.832 54.944 167.56 54.136 167.56 53.096V38.216L170.632 37.88V53C170.632 53.592 170.872 53.888 171.352 53.888C171.592 53.888 171.832 53.848 172.072 53.768L172.72 55.928C172.08 56.216 171.4 56.36 170.68 56.36ZM177.83 37.88V56H174.758V38.216L177.83 37.88ZM185.438 43.304L181.214 48.896L185.846 56H182.318L177.95 49.064L182.198 43.304H185.438ZM190.65 43.304V56H187.578V43.304H190.65ZM189.09 36.872C189.666 36.872 190.13 37.056 190.482 37.424C190.85 37.776 191.034 38.216 191.034 38.744C191.034 39.272 190.85 39.712 190.482 40.064C190.13 40.416 189.666 40.592 189.09 40.592C188.53 40.592 188.066 40.416 187.698 40.064C187.346 39.712 187.17 39.272 187.17 38.744C187.17 38.216 187.346 37.776 187.698 37.424C188.066 37.056 188.53 36.872 189.09 36.872ZM201.624 55.4C201.176 55.72 200.672 55.96 200.112 56.12C199.568 56.28 199.008 56.36 198.432 56.36C197.184 56.344 196.232 55.992 195.576 55.304C194.936 54.6 194.616 53.568 194.616 52.208V45.512H192.624V43.304H194.616V40.496L197.688 40.136V43.304H200.64L200.328 45.512H197.688V52.136C197.688 52.76 197.792 53.208 198 53.48C198.224 53.752 198.568 53.888 199.032 53.888C199.496 53.888 200 53.736 200.544 53.432L201.624 55.4Z" fill="black"/>
</g>
<defs>
<clipPath id="clip0_201_2">
<rect width="211" height="67" fill="white"/>
</clipPath>
</defs>
</svg>
